<svg width="35" height="35" viewBox="0 0 35 35" fill="none" xmlns="http://www.w3.org/2000/svg">
<path fill-rule="evenodd" clip-rule="evenodd" d="M17.5001 3.27637C9.44279 3.27637 2.91675 9.80241 2.91675 17.8597C2.91675 24.3128 7.09123 29.7633 12.8881 31.6956C13.6173 31.8232 13.8907 31.3857 13.8907 31.0029C13.8907 30.6566 13.8725 29.5081 13.8725 28.2868C10.2084 28.9613 9.2605 27.3936 8.96883 26.5732C8.80477 26.154 8.09383 24.8597 7.47404 24.5133C6.96362 24.2399 6.23446 23.5654 7.45581 23.5472C8.60425 23.529 9.42456 24.6045 9.698 25.042C11.0105 27.2477 13.1069 26.6279 13.9454 26.2451C14.073 25.2972 14.4558 24.6592 14.8751 24.2946C11.6303 23.93 8.23967 22.6722 8.23967 17.0941C8.23967 15.5081 8.80477 14.1956 9.73446 13.1748C9.58862 12.8102 9.07821 11.3154 9.88029 9.31022C9.88029 9.31022 11.1016 8.92741 13.8907 10.805C15.0574 10.4769 16.297 10.3128 17.5365 10.3128C18.7761 10.3128 20.0157 10.4769 21.1824 10.805C23.9714 8.90918 25.1928 9.31022 25.1928 9.31022C25.9949 11.3154 25.4845 12.8102 25.3386 13.1748C26.2683 14.1956 26.8334 15.4899 26.8334 17.0941C26.8334 22.6904 23.4246 23.93 20.1798 24.2946C20.7084 24.7503 21.1641 25.6253 21.1641 26.9925C21.1641 28.943 21.1459 30.5107 21.1459 31.0029C21.1459 31.3857 21.4194 31.8415 22.1485 31.6956C25.0436 30.7183 27.5593 28.8577 29.3415 26.3757C31.1237 23.8937 32.0826 20.9153 32.0834 17.8597C32.0834 9.80241 25.5574 3.27637 17.5001 3.27637Z" fill="#191E29"/>
</svg>
